<?xml version="1.0" standalone="no"?>
<!DOCTYPE svg PUBLIC "-//W3C//DTD SVG 1.1//EN" "http://www.w3.org/Graphics/SVG/1.1/DTD/svg11.dtd" >
<svg>
<metadata>
Created by FontForge 20090622 at Sun Nov 27 17:25:14 2016
 By deploy user
Copyright (C) 2004 Hoefler &#38; Frere-Jones Typography, Inc. www.typography.com
</metadata>
<defs>
<font id="Whitney-Bold" horiz-adv-x="454" >
  <font-face 
    font-family="Whitney"
    font-weight="700"
    font-stretch="normal"
    units-per-em="1000"
    panose-1="0 0 0 0 0 0 0 0 0 0"
    ascent="800"
    descent="-200"
    x-height="490"
    cap-height="690"
    bbox="-79 -200 998 954"
    underline-thickness="20"
    underline-position="-123"
    unicode-range="U+0020-U+FB02"
  />
<missing-glyph horiz-adv-x="500" 
 />
    <glyph glyph-name=".notdef" horiz-adv-x="500" 
 />
    <glyph glyph-name=".null" horiz-adv-x="0" 
 />
    <glyph glyph-name="nonmarkingreturn" horiz-adv-x="333" 
 />
    <glyph glyph-name="space" unicode=" " horiz-adv-x="209" 
 />
    <glyph glyph-name="exclam" unicode="!" horiz-adv-x="295" 
d="M242 690l-47 -432l-92 -20l-49 452h188zM229 0h-163v172h163v-172z" />
    <glyph glyph-name="quotedbl" unicode="&#x22;" horiz-adv-x="520" 
d="M473 676l-44 -300l-96 21l-41 279h181zM228 676l-44 -300l-97 21l-40 279h181z" />
    <glyph glyph-name="numbersign" unicode="#" horiz-adv-x="673" 
d="M236 141l-23 -150l-91 21l20 129h-104v127h124l21 140h-109l-21 127h150l23 143h96l-23 -143h137l24 150l92 -21l-21 -129h104v-127h-123l-23 -140h111l20 -127h-151l-23 -143h-95l22 143h-137zM278 411l-23 -146h140l23 146h-140z" />
    <glyph glyph-name="dollar" unicode="$" horiz-adv-x="549" 
d="M366 673q64 -11 122 -42l-21 -123q-61 36 -124 49l-22 -146q101 -32 146 -77.5t45 -130.5q0 -103 -67 -155.5t-180 -52.5h-1l-17 -117l-73 16l15 107q-83 13 -160 52l19 122q89 -48 165 -59l26 171q-100 31 -146 73.5t-46 125.5q0 92 62 143.5t173 51.5h10l11 74l73 -16z
M276 112q101 2 101 74q0 28 -17 46.5t-61 35.5zM280 565h-11q-87 0 -87 -62q0 -25 16.5 -41.5t61.5 -31.5z" />
    <glyph glyph-name="percent" unicode="%" horiz-adv-x="894" 
d="M373 486q0 -94 -47.5 -147t-119.5 -53q-73 0 -120.5 52.5t-47.5 146.5q0 93 47.5 146t120.5 53t120 -52.5t47 -145.5zM708 663l-433 -670l-89 20l432 670zM268 486q0 114 -62 114q-64 0 -64 -115q0 -54 16.5 -84t47.5 -30q62 0 62 115zM856 191q0 -93 -47.5 -146
t-120.5 -53t-120 52.5t-47 145.5q0 94 47.5 147t119.5 53q73 0 120.5 -52.5t47.5 -146.5zM751 191q0 54 -16.5 84t-46.5 30q-63 0 -63 -115q0 -54 16.5 -84t46.5 -30q63 0 63 115z" />
    <glyph glyph-name="ampersand" unicode="&#x26;" horiz-adv-x="662" 
d="M673 16l-169 -22l-60 67q-80 -72 -189 -72q-105 0 -166.5 50t-61.5 139q0 125 136 204q-31 39 -44 72t-13 76q0 79 54.5 126t148.5 47q106 0 185 -44l-22 -134q-87 47 -147 47q-30 0 -45.5 -14.5t-15.5 -37.5q0 -34 41 -79l141 -161q21 58 29 132l128 -28
q-18 -124 -66 -210zM370 148l-130 146q-57 -44 -57 -98q0 -39 26.5 -62.5t71.5 -23.5q48 0 89 38z" />
    <glyph glyph-name="quotesingle" unicode="'" horiz-adv-x="278" 
d="M231 676l-43 -300l-101 21l-40 279h184z" />
    <glyph glyph-name="parenleft" unicode="(" horiz-adv-x="408" 
d="M389 -67l-116 -27q-113 88 -170.5 181.5t-57.5 222.5q0 278 298 416l15 -102q-74 -64 -109 -136.5t-35 -175.5q0 -112 40 -196t135 -183z" />
    <glyph glyph-name="parenright" unicode=")" horiz-adv-x="408" 
d="M362 318q0 -278 -297 -417l-15 103q74 65 109.5 137.5t35.5 174.5q0 111 -40.5 195t-135.5 184l116 27q113 -89 170 -182.5t57 -221.5z" />
    <glyph glyph-name="asterisk" unicode="*" horiz-adv-x="438" 
d="M407 546l-107 -69l47 -119l-31 -20l-97 80l-98 -80l-30 20l47 119l-107 69l11 35l128 -7l29 122h39l30 -122l128 7z" />
    <glyph glyph-name="plus" unicode="+" horiz-adv-x="572" 
d="M518 279h-171v-177h-122v177h-171v118h171v177h122v-177h171v-118z" />
    <glyph glyph-name="comma" unicode="," horiz-adv-x="258" 
d="M237 172l-125 -320l-90 21l44 299h171z" />
    <glyph glyph-name="hyphen" unicode="-" horiz-adv-x="354" 
d="M314 219h-273v144h273v-144z" />
    <glyph glyph-name="period" unicode="." horiz-adv-x="258" 
d="M211 0h-162v172h162v-172z" />
    <glyph glyph-name="slash" unicode="/" horiz-adv-x="530" 
d="M518 672l-430 -799l-124 27l430 799z" />
    <glyph glyph-name="zero" unicode="0" horiz-adv-x="634" 
d="M598 338q0 -167 -76 -259t-204 -92q-129 0 -205.5 92t-76.5 259t76.5 259t205.5 92q128 0 204 -92t76 -259zM433 338q0 224 -115 224q-116 0 -116 -224t116 -224q115 0 115 224z" />
    <glyph glyph-name="one" unicode="1" horiz-adv-x="407" 
d="M339 0h-168v520l-136 -53l-18 130l173 80h149v-677z" />
    <glyph glyph-name="two" unicode="2" horiz-adv-x="552" 
d="M517 0h-477v119l233 233q36 37 52 64t16 59q0 34 -23 53t-64 19q-84 0 -179 -69l-20 142q100 67 224 67q104 0 164.5 -51.5t60.5 -142.5q0 -65 -30.5 -115.5t-98.5 -114.5l-135 -131h256z" />
    <glyph glyph-name="three" unicode="3" horiz-adv-x="545" 
d="M508 189q0 -96 -71 -149t-184 -53q-128 0 -222 53l21 131q93 -50 186 -50q50 0 78.5 20.5t28.5 59.5q0 44 -34.5 65.5t-112.5 21.5h-41l-20 122h63q132 0 132 78q0 67 -97 67q-89 0 -173 -56l-21 128q91 62 219 62q111 0 174 -49t63 -129q0 -113 -119 -157
q130 -42 130 -165z" />
    <glyph glyph-name="four" unicode="4" horiz-adv-x="610" 
d="M591 135h-95v-135h-157v135h-313v104l285 438h185v-429h95v-113zM339 248v268l-173 -268h173z" />
    <glyph glyph-name="five" unicode="5" horiz-adv-x="555" 
d="M519 226q0 -114 -75.5 -176.5t-199.5 -62.5q-109 0 -210 46l22 139q100 -49 186 -49q54 0 87.5 25t33.5 70q0 42 -27 65t-76 23q-50 0 -97 -20l-103 23l23 367h399l21 -135h-294l-8 -120q46 12 96 12q101 0 161.5 -54t60.5 -153z" />
    <glyph glyph-name="six" unicode="6" horiz-adv-x="577" 
d="M192 380q75 49 163 49q84 0 138 -52.5t54 -152.5q0 -106 -71.5 -171.5t-179.5 -65.5q-118 0 -189 74.5t-71 211.5q0 173 106 277.5t284 139.5l21 -132q-210 -48 -255 -178zM186 272q1 -81 31 -122.5t79 -41.5q44 0 70 28.5t26 77.5q0 97 -95 97q-53 0 -111 -39z" />
    <glyph glyph-name="seven" unicode="7" horiz-adv-x="541" 
d="M505 547l-250 -554l-159 28l237 516h-283l-21 139h476v-129z" />
    <glyph glyph-name="eight" unicode="8" horiz-adv-x="589" 
d="M322 406q62 45 62 100q0 34 -25 55t-66 21q-40 0 -63 -21t-23 -53t25 -54t90 -48zM260 303q-72 -49 -72 -111q0 -42 30.5 -66.5t78.5 -24.5q43 0 71.5 23t28.5 60q0 39 -28.5 63t-108.5 56zM156 352q-99 59 -99 153q0 85 67.5 134.5t174.5 49.5t170.5 -48.5t63.5 -125.5
q0 -92 -102 -157q62 -31 92 -71.5t30 -100.5q0 -88 -70 -143.5t-189 -55.5q-122 0 -190.5 54t-68.5 135q0 108 121 176z" />
    <glyph glyph-name="nine" unicode="9" horiz-adv-x="577" 
d="M383 287q-77 -49 -157 -49q-89 0 -142.5 53t-53.5 156q0 110 70.5 176t179.5 66q119 0 190 -74.5t71 -211.5q0 -174 -108.5 -279t-291.5 -138l-19 132q213 41 261 169zM391 393v2q0 87 -30 130t-80 43q-43 0 -69.5 -29t-26.5 -81q0 -102 96 -102q55 0 110 37z" />
    <glyph glyph-name="colon" unicode=":" horiz-adv-x="267" 
d="M215 320h-162v170h162v-170zM215 0h-162v170h162v-170z" />
    <glyph glyph-name="semicolon" unicode=";" horiz-adv-x="267" 
d="M221 320h-162v170h162v-170zM232 170l-124 -318l-91 21l44 297h171z" />
    <glyph glyph-name="less" unicode="&#x3c;" horiz-adv-x="572" 
d="M504 63l-447 222v106l447 222v-130l-298 -144l298 -145v-131z" />
    <glyph glyph-name="equal" unicode="=" horiz-adv-x="590" 
d="M518 399h-445v120h445v-120zM518 158h-445v119h445v-119z" />
    <glyph glyph-name="greater" unicode="&#x3e;" horiz-adv-x="572" 
d="M515 285l-447 -222v131l298 143l-298 145v131l447 -222v-106z" />
    <glyph glyph-name="question" unicode="?" horiz-adv-x="506" 
d="M293 0h-162v172h162v-172zM270 285l-3 -33l-99 -23l-11 152l31 10q73 21 103 45.5t30 61.5q0 31 -22 48.5t-63 17.5q-89 0 -189 -71l-21 140q103 70 232 70q106 0 164.5 -50.5t58.5 -141.5q0 -85 -52 -138.5t-159 -87.5z" />
    <glyph glyph-name="at" unicode="@" horiz-adv-x="835" 
d="M458 212l24 150q-22 6 -39 6q-44 0 -76 -49t-32 -119q0 -52 37 -52q34 0 86 64zM462 130q-70 -82 -138 -82q-48 0 -78.5 34.5t-30.5 96.5q0 123 67 202.5t164 79.5q82 0 164 -33l-33 -214q-4 -28 -4 -51q0 -24 15 -39.5t47 -15.5q51 0 84 54.5t33 148.5q0 145 -80 219.5
t-214 74.5q-152 0 -264 -120.5t-112 -293.5q0 -152 80 -224t217 -72q117 0 213 48l6 -36q-96 -47 -223 -47q-159 0 -248 84.5t-89 245.5q0 119 57 223t155 166t212 62q152 0 243 -87t91 -242q0 -121 -52.5 -192.5t-145.5 -71.5q-48 0 -85 22t-51 60z" />
    <glyph glyph-name="A" unicode="A" horiz-adv-x="702" 
d="M689 21l-172 -28l-52 150h-237l-48 -143h-167l248 693h188zM424 277l-78 240l-78 -240h156z" />
    <glyph glyph-name="B" unicode="B" horiz-adv-x="588" 
d="M558 199q0 -98 -69.5 -148.5t-195.5 -50.5h-230v690h235q116 0 175 -46.5t59 -132.5q0 -102 -99 -146q125 -40 125 -166zM380 492q0 75 -94 75h-61v-156h57q47 0 72.5 21.5t25.5 59.5zM397 210q0 91 -111 91h-61v-178h63q109 0 109 87z" />
    <glyph glyph-name="C" unicode="C" horiz-adv-x="605" 
d="M569 39q-92 -51 -196 -51q-156 0 -245.5 96.5t-89.5 259.5q0 160 91.5 259t238.5 99q111 0 191 -45l-24 -154q-74 56 -154 56q-79 0 -125.5 -57t-46.5 -157q0 -101 50.5 -157.5t130.5 -56.5q71 0 157 48z" />
    <glyph glyph-name="D" unicode="D" horiz-adv-x="705" 
d="M666 346q0 -157 -95 -251.5t-266 -94.5h-242v690h237q176 0 271 -93t95 -251zM494 345q0 105 -53.5 158.5t-144.5 53.5h-62v-424h62q95 0 146.5 52t51.5 160z" />
    <glyph glyph-name="E" unicode="E" horiz-adv-x="535" 
d="M502 0h-439v690h430v-137h-262v-126h200l22 -141h-222v-149h271v-137z" />
    <glyph glyph-name="F" unicode="F" horiz-adv-x="503" 
d="M476 547h-243v-140h180l24 -145h-204v-262h-170v690h413v-143z" />
    <glyph glyph-name="G" unicode="G" horiz-adv-x="682" 
d="M630 60q-112 -73 -252 -73q-161 0 -250.5 97t-89.5 260q0 162 93 260.5t251 98.5q121 0 211 -51l-23 -149q-93 59 -184 59q-87 0 -132 -58.5t-45 -158.5q0 -101 46 -161t133 -60q52 0 93 22v123h-120l-20 127h289v-336z" />
    <glyph glyph-name="H" unicode="H" horiz-adv-x="707" 
d="M644 0h-171v282h-239v-282h-171v690h171v-258h239v258h171v-690z" />
    <glyph glyph-name="I" unicode="I" horiz-adv-x="305" 
d="M238 0h-171v690h171v-690z" />
    <glyph glyph-name="J" unicode="J" horiz-adv-x="425" 
d="M368 210q0 -112 -62.5 -164.5t-168.5 -52.5q-63 0 -95 9l-23 144q40 -11 81 -11q48 0 72 23.5t24 78.5v453h172v-480z" />
    <glyph glyph-name="K" unicode="K" horiz-adv-x="650" 
d="M650 21l-184 -28l-232 328v-321h-171v690h171v-295l217 295h190l-244 -319z" />
    <glyph glyph-name="L" unicode="L" horiz-adv-x="485" 
d="M469 0h-406v690h171v-542h212z" />
    <glyph glyph-name="M" unicode="M" horiz-adv-x="891" 
d="M848 0h-174l-30 459l-131 -460h-160l-131 460l-30 -459h-149l50 690h221l134 -475l135 475h215z" />
    <glyph glyph-name="N" unicode="N" horiz-adv-x="705" 
d="M642 0h-148l-272 413v-413h-159v690h166l254 -386v386h159v-690z" />
    <glyph glyph-name="O" unicode="O" horiz-adv-x="735" 
d="M697 346q0 -161 -90.5 -260t-240.5 -99q-148 0 -238 98.5t-90 258.5q0 161 90.5 260t239.5 99t239 -98.5t90 -258.5zM525 345q0 104 -42 164t-116 60t-116 -60t-42 -164q0 -103 42 -163.5t116 -60.5t116 60t42 164z" />
    <glyph glyph-name="P" unicode="P" horiz-adv-x="574" 
d="M556 465q0 -114 -75 -175t-203 -61h-44v-229h-171v690h222q128 0 199.5 -57t71.5 -168zM390 462q0 99 -115 99h-43v-203h40q118 0 118 104z" />
    <glyph glyph-name="Q" unicode="Q" horiz-adv-x="735" 
d="M697 356q0 -106 -42.5 -183.5t-118.5 -118.5l161 -51l-32 -146l-387 139q-121 43 -180.5 128t-59.5 220q0 161 90.5 260t239.5 99t239 -94.5t90 -252.5zM525 344q0 101 -42 163t-116 62t-116 -62t-42 -163q0 -102 42.5 -164.5t115.5 -62.5q74 0 116 62t42 165z" />
    <glyph glyph-name="R" unicode="R" horiz-adv-x="615" 
d="M401 462q0 48 -29.5 73.5t-84.5 25.5h-55v-201h53q55 0 85.5 26.5t30.5 75.5zM441 276l165 -254l-175 -29l-151 244h-47v-237h-170v690h241q126 0 195.5 -56t69.5 -162q0 -140 -128 -196z" />
    <glyph glyph-name="S" unicode="S" horiz-adv-x="553" 
d="M523 208q0 -107 -69 -161.5t-178 -54.5q-127 0 -241 52l25 146q120 -64 219 -64q38 0 60.5 16t22.5 46t-22.5 48.5t-94.5 45.5q-110 42 -154 86t-44 126q0 96 66.5 150t169.5 54q113 0 208 -46l-26 -144q-96 56 -180 56q-38 0 -57.5 -14.5t-19.5 -39.5q0 -27 20.5 -44
t84.5 -41q116 -42 163 -89t47 -128z" />
    <glyph glyph-name="T" unicode="T" horiz-adv-x="609" 
d="M595 545h-207v-545h-172v545h-191v145h546z" />
    <glyph glyph-name="U" unicode="U" horiz-adv-x="688" 
d="M633 274q0 -139 -80 -212t-211 -73q-132 0 -209.5 72t-77.5 212v417h172v-416q0 -67 30 -104t87 -37q58 0 87.5 36t29.5 103v418h172v-416z" />
    <glyph glyph-name="V" unicode="V" horiz-adv-x="692" 
d="M679 690l-249 -693h-175l-242 672l186 28l154 -484l150 477h176z" />
    <glyph glyph-name="W" unicode="W" horiz-adv-x="990" 
d="M972 690l-188 -690h-173l-119 445l-119 -445h-172l-182 668l185 29l104 -439l112 432h172l112 -432l99 432h169z" />
    <glyph glyph-name="X" unicode="X" horiz-adv-x="661" 
d="M230 351l-200 317l182 29q125 -217 125 -218l119 211h176l-201 -326l55 -86l108 -170l54 -86l-183 -29l-142 243l-136 -236h-175z" />
    <glyph glyph-name="Y" unicode="Y" horiz-adv-x="672" 
d="M666 690l-248 -436v-254h-172v252l-238 420l182 25l150 -287l147 280h179z" />
    <glyph glyph-name="Z" unicode="Z" horiz-adv-x="613" 
d="M580 0h-540v124l322 430h-287l-21 136h517v-124l-322 -430h309z" />
    <glyph glyph-name="bracketleft" unicode="[" horiz-adv-x="418" 
d="M383 -104h-312v794h307v-92h-162v-609h151z" />
    <glyph glyph-name="backslash" unicode="\" horiz-adv-x="530" 
d="M566 -101l-125 -26l-430 799l125 27z" />
    <glyph glyph-name="bracketright" unicode="]" horiz-adv-x="418" 
d="M347 -104h-307v93h162v609h-152l-15 92h312v-794z" />
    <glyph glyph-name="asciicircum" unicode="^" 
d="M394 560l-89 -17l-77 62l-74 -58h-96l102 147h138z" />
    <glyph glyph-name="underscore" unicode="_" 
d="M456 -104h-458v70h458v-70z" />
    <glyph glyph-name="grave" unicode="`" 
d="M341 547h-99l-146 121l185 30z" />
    <glyph glyph-name="a" unicode="a" horiz-adv-x="507" 
d="M459 0h-134l-10 61q-68 -71 -154 -71q-60 0 -96.5 35.5t-36.5 100.5q0 85 67 129t213 57v9q0 62 -74 62t-158 -37l-18 114q93 38 199 38q104 0 153 -39t49 -131v-328zM308 135v104q-73 -11 -102 -34.5t-29 -58.5q0 -23 13 -35.5t34 -12.5q42 0 84 37z" />
    <glyph glyph-name="b" unicode="b" horiz-adv-x="541" 
d="M510 258q0 -133 -65.5 -198.5t-182.5 -65.5q-119 0 -210 35v669l151 24v-286q62 64 131 64q79 0 127.5 -61t48.5 -181zM359 248q0 117 -73 117q-41 0 -83 -47v-194q30 -9 55 -9q101 0 101 133z" />
    <glyph glyph-name="c" unicode="c" horiz-adv-x="451" 
d="M421 35q-72 -44 -156 -44q-107 0 -172 66.5t-65 183.5q0 124 68.5 190.5t174.5 66.5q82 0 146 -37l-20 -129q-56 36 -111 36q-47 0 -76 -31.5t-29 -91.5t31 -92.5t79 -32.5q53 0 112 38z" />
    <glyph glyph-name="d" unicode="d" horiz-adv-x="544" 
d="M492 0h-134l-10 64q-66 -74 -141 -74q-79 0 -128 61t-49 180q0 132 59 197t148 65q59 0 104 -16v221l151 24v-722zM341 174v187q-31 14 -71 14t-64 -33t-24 -100q0 -60 20.5 -89t54.5 -29q39 0 84 50z" />
    <glyph glyph-name="e" unicode="e" horiz-adv-x="505" 
d="M476 246q0 -27 -3 -39h-294q11 -107 120 -107q72 0 161 51l15 -106q-86 -55 -195 -55q-115 0 -183.5 63.5t-68.5 189.5q0 118 64.5 187.5t166.5 69.5q108 0 162.5 -70.5t54.5 -183.5zM332 290q-8 112 -77 112q-32 0 -52.5 -28.5t-24.5 -83.5h154z" />
    <glyph glyph-name="f" unicode="f" horiz-adv-x="341" 
d="M346 592q-30 4 -54 4q-60 0 -60 -60v-46h89l18 -123h-107v-367h-151v367h-68v123h68v61q0 162 186 162q19 0 61 -5z" />
    <glyph glyph-name="g" unicode="g" horiz-adv-x="534" 
d="M155 9q-29 -29 -29 -55q0 -58 126 -58q57 0 90.5 16.5t33.5 41.5q0 17 -15.5 26t-55.5 13l-73 6q-34 3 -77 10zM315 329q0 35 -19.5 57.5t-52.5 22.5q-32 0 -51 -23.5t-19 -59.5q0 -35 18.5 -56.5t51.5 -21.5q34 0 53 22.5t19 58.5zM392 451l116 44l19 -112
q-85 -2 -86 -2q9 -26 9 -52q0 -77 -58.5 -123t-144.5 -46q-23 0 -46 3q-12 -12 -12 -22q0 -11 14.5 -15.5t63.5 -10.5l90 -6q77 -8 117 -35t40 -80q0 -79 -77.5 -127.5t-196.5 -48.5q-106 0 -171 31t-65 86q0 61 80 105q-27 24 -27 54q0 47 73 88q-94 43 -94 142
q0 79 58 126.5t148 47.5t150 -47z" />
    <glyph glyph-name="h" unicode="h" horiz-adv-x="537" 
d="M488 0h-152v307q0 59 -50 59q-39 0 -83 -44v-322h-151v698l151 24v-293q73 71 146 71q67 0 103 -40t36 -112v-348z" />
    <glyph glyph-name="i" unicode="i" horiz-adv-x="262" 
d="M217 635q0 -36 -24.5 -58.5t-61.5 -22.5t-61.5 22.5t-24.5 58.5q0 37 24.5 59.5t61.5 22.5t61.5 -22.5t24.5 -59.5zM207 0h-152v490h152v-490z" />
    <glyph glyph-name="j" unicode="j" horiz-adv-x="263" 
d="M217 635q0 -36 -24.5 -58.5t-61.5 -22.5t-61.5 22.5t-24.5 58.5q0 37 24.5 59.5t61.5 22.5t61.5 -22.5t24.5 -59.5zM207 -14q0 -168 -171 -168q-34 0 -54 4l-18 118q22 -4 36 -4q27 0 41 14t14 48v492h152v-504z" />
    <glyph glyph-name="k" unicode="k" horiz-adv-x="505" 
d="M502 15l-157 -22l-142 235v-228h-151v698l151 24v-433l131 201h162l-154 -223z" />
    <glyph glyph-name="l" unicode="l" horiz-adv-x="262" 
d="M207 0h-152v698l152 24v-722z" />
    <glyph glyph-name="m" unicode="m" horiz-adv-x="811" 
d="M762 0h-152v307q0 59 -48 59q-35 0 -80 -43v-323h-151v307q0 59 -48 59q-35 0 -80 -43v-323h-151v490h133l11 -67q75 77 152 77q91 0 122 -77q77 77 153 77q67 0 103 -40t36 -112v-348z" />
    <glyph glyph-name="n" unicode="n" horiz-adv-x="537" 
d="M488 0h-152v307q0 59 -50 59q-39 0 -83 -44v-322h-151v490h133l11 -67q79 77 153 77q67 0 103 -40t36 -112v-348z" />
    <glyph glyph-name="o" unicode="o" horiz-adv-x="527" 
d="M499 245q0 -116 -66.5 -185.5t-170.5 -69.5q-103 0 -168.5 69t-65.5 185t66 186t169 70q104 0 170 -69.5t66 -185.5zM353 244q0 60 -23.5 96t-66.5 36t-66 -35t-23 -96q0 -60 23.5 -96.5t65.5 -36.5q43 0 66.5 36t23.5 96z" />
    <glyph glyph-name="p" unicode="p" horiz-adv-x="544" 
d="M512 258q0 -131 -59 -197t-147 -66q-50 0 -103 17v-175l-151 -23v676h133l10 -65q67 75 141 75q80 0 128 -61t48 -181zM361 248q0 59 -20 88t-54 29q-42 0 -84 -50v-186q31 -15 69 -15q41 0 65 33t24 101z" />
    <glyph glyph-name="q" unicode="q" horiz-adv-x="541" 
d="M489 -163l-151 -23v239q-65 -63 -131 -63q-80 0 -128.5 61t-48.5 180q0 133 66 199t182 66q114 0 211 -35v-624zM338 171v194q-26 9 -56 9q-100 0 -100 -132q0 -118 73 -118q38 0 83 47z" />
    <glyph glyph-name="r" unicode="r" horiz-adv-x="377" 
d="M368 346q-103 -7 -165 -74v-272h-151v490h132l16 -97q54 101 143 107z" />
    <glyph glyph-name="s" unicode="s" horiz-adv-x="464" 
d="M435 151q0 -77 -51.5 -118t-149.5 -41q-109 0 -202 49l18 115q93 -58 185 -58q62 0 62 37q0 19 -16 30t-67 23q-97 25 -136 58t-39 99q0 69 49.5 110.5t138.5 41.5q101 0 181 -36l-19 -115q-84 46 -161 46q-52 0 -52 -32q0 -16 16.5 -26t66.5 -24q100 -27 138 -59.5
t38 -99.5z" />
    <glyph glyph-name="t" unicode="t" horiz-adv-x="363" 
d="M344 3q-34 -10 -87 -10q-85 0 -131.5 37t-46.5 126v211h-65v123h65v146l150 23v-169h93l19 -123h-112v-187q0 -58 60 -58q18 0 36 5z" />
    <glyph glyph-name="u" unicode="u" horiz-adv-x="537" 
d="M485 0h-133l-11 67q-79 -77 -153 -77q-68 0 -103.5 39.5t-35.5 111.5v349h151v-307q0 -60 51 -60q39 0 83 44v323h151v-490z" />
    <glyph glyph-name="v" unicode="v" horiz-adv-x="507" 
d="M499 490l-171 -492h-151l-167 480l162 19l91 -310l89 303h147z" />
    <glyph glyph-name="w" unicode="w" horiz-adv-x="725" 
d="M715 490l-137 -490h-144l-72 280l-71 -280h-145l-134 478l156 19l67 -293l69 286h136l70 -285l65 285h140z" />
    <glyph glyph-name="x" unicode="x" horiz-adv-x="496" 
d="M481 12l-157 -19l-84 151l-81 -144h-144l149 242l-142 236l157 19l76 -139l75 132h143l-142 -230z" />
    <glyph glyph-name="y" unicode="y" horiz-adv-x="510" 
d="M502 490l-174 -500q-33 -95 -81.5 -133.5t-129.5 -38.5q-29 0 -57 6l-19 121q26 -8 60 -8q58 0 80 47l6 15l-178 479l162 19l95 -309l90 302h146z" />
    <glyph glyph-name="z" unicode="z" horiz-adv-x="467" 
d="M442 0h-413v114l214 258h-187l-18 118h392v-115l-214 -257h207z" />
    <glyph glyph-name="braceleft" unicode="{" horiz-adv-x="506" 
d="M469 -104h-154q-76 0 -116 34.5t-40 96.5q0 24 6.5 67t6.5 65q0 48 -27 68t-80 20h-25l-15 93h41q52 0 79 20t27 67q0 22 -6.5 65.5t-6.5 66.5q0 62 40 96.5t116 34.5h150v-92h-89q-68 0 -68 -58q0 -19 6.5 -57.5t6.5 -61.5q0 -102 -114 -127v-2q114 -25 114 -127
q0 -23 -6.5 -61t-6.5 -58q0 -57 68 -57h78z" />
    <glyph glyph-name="bar" unicode="|" horiz-adv-x="300" 
d="M214 -166l-127 -20v888l127 20v-888z" />
    <glyph glyph-name="braceright" unicode="}" horiz-adv-x="506" 
d="M480 247h-41q-53 0 -80 -20t-27 -68q0 -22 7 -65t7 -67q0 -62 -39.5 -96.5t-116.5 -34.5h-150v93h90q68 0 68 56q0 19 -7 58t-7 62q0 102 114 127v2q-114 25 -114 127q0 23 7 62t7 58q0 57 -68 57h-80l-14 92h154q77 0 116.5 -34.5t39.5 -96.5q0 -23 -7 -66.5t-7 -65.5
q0 -47 27.5 -67t80.5 -20h25z" />
    <glyph glyph-name="asciitilde" unicode="~" horiz-adv-x="409" 
d="M372 354q-10 -75 -33.5 -107t-62.5 -32q-24 0 -71 20q-50 21 -65 21q-12 0 -19 -9.5t-13 -34.5l-71 15q9 76 32.5 108t63.5 32q23 0 70 -20q48 -21 66 -21q20 0 32 45z" />
    <glyph glyph-name="nbspace" unicode="&#xa0;" horiz-adv-x="104" 
 />
    <glyph glyph-name="exclamdown" unicode="&#xa1;" horiz-adv-x="295" 
d="M229 518h-163v172h163v-172zM242 0h-188l46 432l92 21z" />
    <glyph glyph-name="cent" unicode="&#xa2;" horiz-adv-x="494" 
d="M299 88l-15 -98l-76 17l14 88q-86 18 -135.5 82t-49.5 160q0 117 72.5 183.5t185.5 66.5h3l15 98l76 -17l-15 -88q44 -9 79 -29l-18 -121q-42 24 -85 33l-39 -255q64 2 131 39l15 -116q-72 -40 -158 -43zM248 217l39 250q-107 -8 -107 -132q0 -90 68 -118z" />
    <glyph glyph-name="sterling" unicode="&#xa3;" horiz-adv-x="551" 
d="M141 399l36 115q28 91 82 133t145 42q63 0 108 -15l-20 -135q-33 11 -71 11q-39 0 -62 -19.5t-36 -64.5l-21 -67h124l20 -127h-184l-44 -142h277l21 -130h-469v101l54 171h-54v127h94z" />
    <glyph glyph-name="currency" unicode="&#xa4;" horiz-adv-x="609" 
d="M101 380h-76v77h88q27 107 102 168.5t188 61.5q100 0 172 -39l-22 -133q-67 39 -136 39q-100 0 -134 -97h194l13 -77h-222q-1 -14 -1 -42q0 -23 1 -34h215v-77h-202q33 -105 147 -105q67 0 137 39l21 -129q-88 -43 -182 -43q-123 0 -197.5 61.5t-97.5 176.5h-78l-12 77
h81q-1 11 -1 33q0 15 2 43z" />
    <glyph glyph-name="yen" unicode="&#xa5;" horiz-adv-x="641" 
d="M397 222v-65h156v-76h-156v-81h-164v81h-148l-12 76h160v65h-155v76h134l-204 362l175 23l142 -283l137 276h172l-216 -378h128l12 -76h-161z" />
    <glyph glyph-name="brokenbar" unicode="&#xa6;" horiz-adv-x="500" 
d="M25 -200v1000h450v-1000h-450z" />
    <glyph glyph-name="section" unicode="&#xa7;" horiz-adv-x="569" 
d="M538 365q0 -52 -33 -95l-111 18q13 24 13 41q0 19 -16 29.5t-60 21.5l-78 19q-78 19 -115 50.5t-37 90.5q0 68 50.5 106t131.5 38q87 0 162 -26l-16 -104q-74 31 -136 31q-51 0 -51 -32q0 -15 12 -23t47 -17l86 -21q84 -21 117.5 -48t33.5 -79zM32 311q0 54 33 95
l110 -18q-12 -22 -12 -41t16 -30t60 -21l77 -19q78 -19 115 -50.5t37 -90.5q0 -68 -50.5 -106t-131.5 -38q-86 0 -162 26l16 104q74 -31 137 -31q51 0 51 32q0 15 -12.5 23t-46.5 17l-87 21q-83 21 -116.5 48t-33.5 79z" />
    <glyph glyph-name="dieresis" unicode="&#xa8;" 
d="M391 548h-130v131h130v-131zM193 548h-130v131h130v-131z" />
    <glyph glyph-name="copyright" unicode="&#xa9;" horiz-adv-x="799" 
d="M745 346q0 -160 -96.5 -259.5t-249.5 -99.5q-154 0 -249.5 98.5t-95.5 258.5t96.5 259.5t249.5 99.5q154 0 249.5 -98.5t95.5 -258.5zM701 345q0 151 -85 236.5t-216 85.5q-133 0 -217.5 -85.5t-84.5 -236.5t85 -236.5t217 -85.5t216.5 85.5t84.5 236.5zM545 177
q-57 -32 -125 -32q-94 0 -149 55.5t-55 147.5q0 90 56 146.5t146 56.5q65 0 120 -26l-15 -98q-49 32 -98 32q-43 0 -68 -30.5t-25 -79.5q0 -51 27 -81.5t73 -30.5q47 0 99 30z" />
    <glyph glyph-name="ordfeminine" unicode="&#xaa;" horiz-adv-x="401" 
d="M342 354h-91l-7 40q-51 -46 -107 -46q-41 0 -65.5 23.5t-24.5 63.5q0 56 46 84.5t146 36.5v6q0 43 -55 43q-50 0 -106 -24l-11 74q64 26 139 26q69 0 102.5 -26.5t33.5 -84.5v-216zM351 222h-300v73h288zM239 446v61q-92 -12 -92 -56q0 -32 30 -32q32 0 62 27z" />
    <glyph glyph-name="guillemotleft" unicode="&#xab;" horiz-adv-x="571" 
d="M535 490l-108 -245l102 -233l-98 -20l-170 253l166 245h108zM297 490l-109 -245l103 -233l-98 -20l-171 253l166 245h109z" />
    <glyph glyph-name="logicalnot" unicode="&#xac;" horiz-adv-x="572" 
d="M518 275h-464v126h464v-126z" />
    <glyph glyph-name="registered" unicode="&#xae;" horiz-adv-x="563" 
d="M508 470q0 -103 -63.5 -167.5t-163.5 -64.5q-101 0 -164 64t-63 168q0 103 64 168t163 65q101 0 164 -64.5t63 -168.5zM475 470q0 96 -55 151t-139 55t-139 -55t-55 -151q0 -95 55 -150t139 -55q85 0 139.5 54.5t54.5 150.5zM404 359l-75 -12l-58 92h-14v-89h-70v256h99
q48 0 74 -20.5t26 -59.5q0 -51 -46 -71zM317 521q0 35 -39 35h-21v-71h20q40 0 40 36z" />
    <glyph glyph-name="macron" unicode="&#xaf;" 
d="M376 559h-298v104h298v-104z" />
    <glyph glyph-name="degree" unicode="&#xb0;" horiz-adv-x="446" 
d="M400 505q0 -77 -50 -126.5t-127 -49.5t-127 49.5t-50 126.5t50 127t127 50t127 -50t50 -127zM310 505q0 40 -24.5 67t-62.5 27t-62.5 -27t-24.5 -67q0 -41 24 -67t63 -26t63 26t24 67z" />
    <glyph glyph-name="plusminus" unicode="&#xb1;" horiz-adv-x="610" 
d="M591 135h-95v-135h-154v135h-316v112l285 434l145 -34l-269 -397h157v146l152 33v-179h95v-115z" />
    <glyph glyph-name="twosuperior" unicode="&#xb2;" horiz-adv-x="500" 
d="M25 -200v1000h450v-1000h-450z" />
    <glyph glyph-name="threesuperior" unicode="&#xb3;" horiz-adv-x="500" 
d="M25 -200v1000h450v-1000h-450z" />
    <glyph glyph-name="acute" unicode="&#xb4;" 
d="M357 668l-147 -121h-96l60 151z" />
    <glyph glyph-name="mu" unicode="&#xb5;" horiz-adv-x="572" 
d="M425 113l-140 142l-139 -141l-84 84l141 139l-142 140l86 86l140 -142l139 141l84 -84l-141 -139l142 -140z" />
    <glyph glyph-name="paragraph" unicode="&#xb6;" horiz-adv-x="550" 
d="M481 0h-91v607h-65v-164l-36 -220q-119 4 -186.5 61.5t-67.5 166.5q0 106 68.5 165.5t188.5 59.5h189v-676z" />
    <glyph glyph-name="periodcentered" unicode="&#xb7;" horiz-adv-x="258" 
d="M211 204h-162v173h162v-173z" />
    <glyph glyph-name="cedilla" unicode="&#xb8;" 
d="M342 -76l-139 -106h-97l54 136z" />
    <glyph glyph-name="onesuperior" unicode="&#xb9;" horiz-adv-x="500" 
d="M25 -200v1000h450v-1000h-450z" />
    <glyph glyph-name="ordmasculine" unicode="&#xba;" horiz-adv-x="402" 
d="M364 514q0 -76 -46 -121t-118 -45q-71 0 -116.5 45t-45.5 121t45.5 121.5t116.5 45.5q72 0 118 -45.5t46 -121.5zM357 222h-309v73h297zM261 514q0 39 -16 62t-45 23q-28 0 -43.5 -23.5t-15.5 -61.5q0 -39 15.5 -62t43.5 -23q29 0 45 23t16 62z" />
    <glyph glyph-name="guillemotright" unicode="&#xbb;" horiz-adv-x="571" 
d="M549 244l-166 -244h-109l109 244l-103 233l99 21zM311 244l-166 -244h-109l108 244l-102 233l98 21z" />
    <glyph glyph-name="onequarter" unicode="&#xbc;" horiz-adv-x="500" 
d="M25 -200v1000h450v-1000h-450z" />
    <glyph glyph-name="onehalf" unicode="&#xbd;" horiz-adv-x="500" 
d="M25 -200v1000h450v-1000h-450z" />
    <glyph glyph-name="threequarters" unicode="&#xbe;" horiz-adv-x="500" 
d="M25 -200v1000h450v-1000h-450z" />
    <glyph glyph-name="questiondown" unicode="&#xbf;" horiz-adv-x="506" 
d="M213 690h162v-172h-162v172zM236 405l3 33l99 23l11 -152l-31 -10q-73 -23 -103 -47t-30 -60q0 -31 22 -48.5t63 -17.5q89 0 189 71l21 -140q-103 -70 -232 -70q-106 0 -164.5 50.5t-58.5 141.5q0 85 52 138.5t159 87.5z" />
    <glyph glyph-name="Agrave" unicode="&#xc0;" horiz-adv-x="702" 
d="M689 21l-172 -28l-52 150h-237l-48 -143h-167l248 693h188zM424 277l-78 240l-78 -240h156zM404 740h-99l-146 121l185 30z" />
    <glyph glyph-name="Aacute" unicode="&#xc1;" horiz-adv-x="702" 
d="M546 861l-147 -121h-96l60 151zM689 21l-172 -28l-52 150h-237l-48 -143h-167l248 693h188zM424 277l-78 240l-78 -240h156z" />
    <glyph glyph-name="Acircumflex" unicode="&#xc2;" horiz-adv-x="702" 
d="M689 21l-172 -28l-52 150h-237l-48 -143h-167l248 693h188zM424 277l-78 240l-78 -240h156zM518 744l-89 -17l-77 62l-74 -58h-96l102 147h138z" />
    <glyph glyph-name="Atilde" unicode="&#xc3;" horiz-adv-x="702" 
d="M689 21l-172 -28l-52 150h-237l-48 -143h-167l248 693h188zM424 277l-78 240l-78 -240h156zM518 879q-9 -75 -32.5 -107t-62.5 -32q-24 0 -71 20q-50 21 -65 21q-12 0 -19 -9.5t-13 -34.5l-71 15q9 75 32.5 107.5t62.5 32.5q28 0 71 -20q47 -21 65 -21q22 0 32 45z" />
    <glyph glyph-name="Adieresis" unicode="&#xc4;" horiz-adv-x="702" 
d="M689 21l-172 -28l-52 150h-237l-48 -143h-167l248 693h188zM424 277l-78 240l-78 -240h156zM515 741h-130v131h130v-131zM317 741h-130v131h130v-131z" />
    <glyph glyph-name="Aring" unicode="&#xc5;" horiz-adv-x="702" 
d="M689 21l-172 -28l-52 150h-237l-48 -143h-167l248 693h188zM424 277l-78 240l-78 -240h156zM483 846q0 -47 -34.5 -77.5t-97.5 -30.5t-97.5 30.5t-34.5 77.5t34.5 77.5t97.5 30.5t97.5 -30.5t34.5 -77.5zM401 846q0 24 -14 40.5t-36 16.5t-36 -16.5t-14 -40.5t14 -41
t36 -17t36 17t14 41z" />
    <glyph glyph-name="AE" unicode="&#xc6;" horiz-adv-x="906" 
d="M873 0h-432v143h-196l-68 -143h-175l335 690h527v-137h-262v-126h200l22 -141h-222v-149h271v-137zM441 277v299l-138 -299h138z" />
    <glyph glyph-name="Ccedilla" unicode="&#xc7;" horiz-adv-x="605" 
d="M569 39q-92 -51 -196 -51q-156 0 -245.5 96.5t-89.5 259.5q0 160 91.5 259t238.5 99q111 0 191 -45l-24 -154q-74 56 -154 56q-79 0 -125.5 -57t-46.5 -157q0 -101 50.5 -157.5t130.5 -56.5q71 0 157 48zM443 -79l-139 -106h-97l54 136z" />
    <glyph glyph-name="Egrave" unicode="&#xc8;" horiz-adv-x="535" 
d="M502 0h-439v690h430v-137h-262v-126h200l22 -141h-222v-149h271v-137zM353 741h-99l-146 121l185 30z" />
    <glyph glyph-name="Eacute" unicode="&#xc9;" horiz-adv-x="535" 
d="M502 0h-439v690h430v-137h-262v-126h200l22 -141h-222v-149h271v-137zM439 862l-147 -121h-96l60 151z" />
    <glyph glyph-name="Ecircumflex" unicode="&#xca;" horiz-adv-x="535" 
d="M502 0h-439v690h430v-137h-262v-126h200l22 -141h-222v-149h271v-137zM442 754l-89 -17l-77 62l-74 -58h-96l102 147h138z" />
    <glyph glyph-name="Edieresis" unicode="&#xcb;" horiz-adv-x="535" 
d="M502 0h-439v690h430v-137h-262v-126h200l22 -141h-222v-149h271v-137zM439 742h-130v131h130v-131zM241 742h-130v131h130v-131z" />
    <glyph glyph-name="Igrave" unicode="&#xcc;" horiz-adv-x="305" 
d="M238 0h-171v690h171v-690zM208 741h-99l-146 121l185 30z" />
    <glyph glyph-name="Iacute" unicode="&#xcd;" horiz-adv-x="305" 
d="M342 862l-147 -121h-96l60 151zM238 0h-171v690h171v-690z" />
    <glyph glyph-name="Icircumflex" unicode="&#xce;" horiz-adv-x="305" 
d="M238 0h-171v690h171v-690zM320 745l-89 -17l-77 62l-74 -58h-96l102 147h138z" />
    <glyph glyph-name="Idieresis" unicode="&#xcf;" horiz-adv-x="305" 
d="M238 0h-171v690h171v-690zM317 742h-130v131h130v-131zM119 742h-130v131h130v-131z" />
    <glyph glyph-name="Eth" unicode="&#xd0;" horiz-adv-x="740" 
d="M702 346q0 -157 -95.5 -251.5t-266.5 -94.5h-241v281h-66l-23 144h89v265h237q176 0 271 -93t95 -251zM529 345q0 105 -53 158.5t-145 53.5h-66v-134h126v-141h-126v-149h66q198 0 198 212z" />
    <glyph glyph-name="Ntilde" unicode="&#xd1;" horiz-adv-x="705" 
d="M642 0h-148l-272 413v-413h-159v690h166l254 -386v386h159v-690zM521 868q-9 -75 -32.5 -107t-62.5 -32q-24 0 -71 20q-50 21 -65 21q-12 0 -19 -9.5t-13 -34.5l-71 15q9 75 32.5 107.5t62.5 32.5q28 0 71 -20q47 -21 65 -21q22 0 32 45z" />
    <glyph glyph-name="Ograve" unicode="&#xd2;" horiz-adv-x="735" 
d="M697 346q0 -161 -90.5 -260t-240.5 -99q-148 0 -238 98.5t-90 258.5q0 161 90.5 260t239.5 99t239 -98.5t90 -258.5zM525 345q0 104 -42 164t-116 60t-116 -60t-42 -164q0 -103 42 -163.5t116 -60.5t116 60t42 164zM423 750h-99l-146 121l185 30z" />
    <glyph glyph-name="Oacute" unicode="&#xd3;" horiz-adv-x="735" 
d="M552 871l-147 -121h-96l60 151zM697 346q0 -161 -90.5 -260t-240.5 -99q-148 0 -238 98.5t-90 258.5q0 161 90.5 260t239.5 99t239 -98.5t90 -258.5zM525 345q0 104 -42 164t-116 60t-116 -60t-42 -164q0 -103 42 -163.5t116 -60.5t116 60t42 164z" />
    <glyph glyph-name="Ocircumflex" unicode="&#xd4;" horiz-adv-x="735" 
d="M697 346q0 -161 -90.5 -260t-240.5 -99q-148 0 -238 98.5t-90 258.5q0 161 90.5 260t239.5 99t239 -98.5t90 -258.5zM525 345q0 104 -42 164t-116 60t-116 -60t-42 -164q0 -103 42 -163.5t116 -60.5t116 60t42 164zM534 758l-89 -17l-77 62l-74 -58h-96l102 147h138z" />
    <glyph glyph-name="Otilde" unicode="&#xd5;" horiz-adv-x="735" 
d="M697 346q0 -161 -90.5 -260t-240.5 -99q-148 0 -238 98.5t-90 258.5q0 161 90.5 260t239.5 99t239 -98.5t90 -258.5zM525 345q0 104 -42 164t-116 60t-116 -60t-42 -164q0 -103 42 -163.5t116 -60.5t116 60t42 164zM534 890q-9 -75 -32.5 -107t-62.5 -32q-24 0 -71 20
q-50 21 -65 21q-12 0 -19 -9.5t-13 -34.5l-71 15q9 75 32.5 107.5t62.5 32.5q28 0 71 -20q47 -21 65 -21q22 0 32 45z" />
    <glyph glyph-name="Odieresis" unicode="&#xd6;" horiz-adv-x="735" 
d="M697 346q0 -161 -90.5 -260t-240.5 -99q-148 0 -238 98.5t-90 258.5q0 161 90.5 260t239.5 99t239 -98.5t90 -258.5zM525 345q0 104 -42 164t-116 60t-116 -60t-42 -164q0 -103 42 -163.5t116 -60.5t116 60t42 164zM531 751h-130v131h130v-131zM333 751h-130v131h130
v-131z" />
    <glyph glyph-name="multiply" unicode="&#xd7;" horiz-adv-x="500" 
d="M25 -200v1000h450v-1000h-450z" />
    <glyph glyph-name="Oslash" unicode="&#xd8;" horiz-adv-x="735" 
d="M710 676l-82 -101q69 -92 69 -231q0 -160 -90 -258.5t-238 -98.5q-113 0 -193 60l-47 -56l-103 23l81 100q-69 94 -69 232q0 160 90.5 258.5t237.5 98.5q112 0 194 -60l46 56zM468 532q-40 43 -101 43q-75 0 -117.5 -62.5t-42.5 -167.5q0 -63 18 -109zM528 345
q0 63 -17 109l-244 -296q40 -43 100 -43q75 0 118 62.5t43 167.5z" />
    <glyph glyph-name="Ugrave" unicode="&#xd9;" horiz-adv-x="688" 
d="M633 274q0 -139 -80 -212t-211 -73q-132 0 -209.5 72t-77.5 212v417h172v-416q0 -67 30 -104t87 -37q58 0 87.5 36t29.5 103v418h172v-416zM405 725h-99l-146 121l185 30z" />
    <glyph glyph-name="Uacute" unicode="&#xda;" horiz-adv-x="688" 
d="M527 846l-147 -121h-96l60 151zM633 274q0 -139 -80 -212t-211 -73q-132 0 -209.5 72t-77.5 212v417h172v-416q0 -67 30 -104t87 -37q58 0 87.5 36t29.5 103v418h172v-416z" />
    <glyph glyph-name="Ucircumflex" unicode="&#xdb;" horiz-adv-x="688" 
d="M633 274q0 -139 -80 -212t-211 -73q-132 0 -209.5 72t-77.5 212v417h172v-416q0 -67 30 -104t87 -37q58 0 87.5 36t29.5 103v418h172v-416zM511 742l-89 -17l-77 62l-74 -58h-96l102 147h138z" />
    <glyph glyph-name="Udieresis" unicode="&#xdc;" horiz-adv-x="688" 
d="M633 274q0 -139 -80 -212t-211 -73q-132 0 -209.5 72t-77.5 212v417h172v-416q0 -67 30 -104t87 -37q58 0 87.5 36t29.5 103v418h172v-416zM508 730h-130v131h130v-131zM310 730h-130v131h130v-131z" />
    <glyph glyph-name="Yacute" unicode="&#xdd;" horiz-adv-x="672" 
d="M666 690l-248 -436v-254h-172v252l-238 420l182 25l150 -287l147 280h179zM528 841l-147 -121h-96l60 151z" />
    <glyph glyph-name="Thorn" unicode="&#xde;" horiz-adv-x="582" 
d="M555 359q0 -114 -75 -175t-203 -61h-43v-123h-171v690h171v-106h50q129 0 200 -57t71 -168zM390 356q0 99 -115 99h-43v-203h40q118 0 118 104z" />
    <glyph glyph-name="germandbls" unicode="&#xdf;" horiz-adv-x="613" 
d="M591 156q0 -79 -47 -121t-130 -42q-73 0 -139 32l19 114q55 -33 103 -33q50 0 50 45q0 61 -144 105l-15 99q61 94 61 169t-58 75q-59 0 -59 -81v-518h-151v367h-68v123h68v17q0 100 55 153t157 53q99 0 150.5 -48t51.5 -128q0 -56 -21 -98.5t-62 -88.5q92 -32 135.5 -77
t43.5 -117z" />
    <glyph glyph-name="agrave" unicode="&#xe0;" horiz-adv-x="507" 
d="M459 0h-134l-10 61q-68 -71 -154 -71q-60 0 -96.5 35.5t-36.5 100.5q0 85 67 129t213 57v9q0 62 -74 62t-158 -37l-18 114q93 38 199 38q104 0 153 -39t49 -131v-328zM308 135v104q-73 -11 -102 -34.5t-29 -58.5q0 -23 13 -35.5t34 -12.5q42 0 84 37zM319 547h-99
l-146 121l185 30z" />
    <glyph glyph-name="aacute" unicode="&#xe1;" horiz-adv-x="507" 
d="M459 0h-134l-10 61q-68 -71 -154 -71q-60 0 -96.5 35.5t-36.5 100.5q0 85 67 129t213 57v9q0 62 -74 62t-158 -37l-18 114q93 38 199 38q104 0 153 -39t49 -131v-328zM308 135v104q-73 -11 -102 -34.5t-29 -58.5q0 -23 13 -35.5t34 -12.5q42 0 84 37zM429 668l-147 -121
h-96l60 151z" />
    <glyph glyph-name="acircumflex" unicode="&#xe2;" horiz-adv-x="507" 
d="M459 0h-134l-10 61q-68 -71 -154 -71q-60 0 -96.5 35.5t-36.5 100.5q0 85 67 129t213 57v9q0 62 -74 62t-158 -37l-18 114q93 38 199 38q104 0 153 -39t49 -131v-328zM308 135v104q-73 -11 -102 -34.5t-29 -58.5q0 -23 13 -35.5t34 -12.5q42 0 84 37zM421 560l-89 -17
l-77 62l-74 -58h-96l102 147h138z" />
    <glyph glyph-name="atilde" unicode="&#xe3;" horiz-adv-x="507" 
d="M459 0h-134l-10 61q-68 -71 -154 -71q-60 0 -96.5 35.5t-36.5 100.5q0 85 67 129t213 57v9q0 62 -74 62t-158 -37l-18 114q93 38 199 38q104 0 153 -39t49 -131v-328zM308 135v104q-73 -11 -102 -34.5t-29 -58.5q0 -23 13 -35.5t34 -12.5q42 0 84 37zM424 686
q-9 -75 -32.5 -107t-62.5 -32q-24 0 -71 20q-50 21 -65 21q-12 0 -19 -9.5t-13 -34.5l-71 15q9 75 32.5 107.5t62.5 32.5q28 0 71 -20q47 -21 65 -21q22 0 32 45z" />
    <glyph glyph-name="adieresis" unicode="&#xe4;" horiz-adv-x="507" 
d="M459 0h-134l-10 61q-68 -71 -154 -71q-60 0 -96.5 35.5t-36.5 100.5q0 85 67 129t213 57v9q0 62 -74 62t-158 -37l-18 114q93 38 199 38q104 0 153 -39t49 -131v-328zM308 135v104q-73 -11 -102 -34.5t-29 -58.5q0 -23 13 -35.5t34 -12.5q42 0 84 37zM420 548h-130v131
h130v-131zM222 548h-130v131h130v-131z" />
    <glyph glyph-name="aring" unicode="&#xe5;" horiz-adv-x="507" 
d="M459 0h-134l-10 61q-68 -71 -154 -71q-60 0 -96.5 35.5t-36.5 100.5q0 85 67 129t213 57v9q0 62 -74 62t-158 -37l-18 114q93 38 199 38q104 0 153 -39t49 -131v-328zM308 135v104q-73 -11 -102 -34.5t-29 -58.5q0 -23 13 -35.5t34 -12.5q42 0 84 37zM386 653
q0 -47 -34.5 -77.5t-97.5 -30.5t-97.5 30.5t-34.5 77.5t34.5 77.5t97.5 30.5t97.5 -30.5t34.5 -77.5zM304 653q0 24 -14 40.5t-36 16.5t-36 -16.5t-14 -40.5q0 -25 14 -41.5t36 -16.5t36 16.5t14 41.5z" />
    <glyph glyph-name="ae" unicode="&#xe6;" horiz-adv-x="781" 
d="M751 246q0 -23 -2 -39h-295q11 -107 120 -107q74 0 161 51l16 -106q-86 -55 -195 -55q-127 0 -194 73q-87 -73 -180 -73q-70 0 -112 34.5t-42 100.5q0 84 66.5 128.5t210.5 58.5v9q0 32 -17 47t-54 15q-74 0 -158 -37l-18 114q93 38 191 38q59 0 94 -15t57 -50
q56 67 142 67q103 0 156 -70.5t53 -183.5zM607 290q-6 112 -77 112q-32 0 -52.5 -28.5t-23.5 -83.5h153zM319 138q-15 50 -15 99v1q-127 -20 -127 -90q0 -50 52 -50q46 0 90 40z" />
    <glyph glyph-name="ccedilla" unicode="&#xe7;" horiz-adv-x="451" 
d="M421 35q-72 -44 -156 -44q-107 0 -172 66.5t-65 183.5q0 124 68.5 190.5t174.5 66.5q82 0 146 -37l-20 -129q-56 36 -111 36q-47 0 -76 -31.5t-29 -91.5t31 -92.5t79 -32.5q53 0 112 38zM359 -79l-139 -106h-97l54 136z" />
    <glyph glyph-name="egrave" unicode="&#xe8;" horiz-adv-x="505" 
d="M476 246q0 -27 -3 -39h-294q11 -107 120 -107q72 0 161 51l15 -106q-86 -55 -195 -55q-115 0 -183.5 63.5t-68.5 189.5q0 118 64.5 187.5t166.5 69.5q108 0 162.5 -70.5t54.5 -183.5zM332 290q-8 112 -77 112q-32 0 -52.5 -28.5t-24.5 -83.5h154zM310 547h-99l-146 121
l185 30z" />
    <glyph glyph-name="eacute" unicode="&#xe9;" horiz-adv-x="505" 
d="M476 246q0 -27 -3 -39h-294q11 -107 120 -107q72 0 161 51l15 -106q-86 -55 -195 -55q-115 0 -183.5 63.5t-68.5 189.5q0 118 64.5 187.5t166.5 69.5q108 0 162.5 -70.5t54.5 -183.5zM332 290q-8 112 -77 112q-32 0 -52.5 -28.5t-24.5 -83.5h154zM439 668l-147 -121h-96
l60 151z" />
    <glyph glyph-name="ecircumflex" unicode="&#xea;" horiz-adv-x="505" 
d="M476 246q0 -27 -3 -39h-294q11 -107 120 -107q72 0 161 51l15 -106q-86 -55 -195 -55q-115 0 -183.5 63.5t-68.5 189.5q0 118 64.5 187.5t166.5 69.5q108 0 162.5 -70.5t54.5 -183.5zM332 290q-8 112 -77 112q-32 0 -52.5 -28.5t-24.5 -83.5h154zM425 560l-89 -17l-77 62
l-74 -58h-96l102 147h138z" />
    <glyph glyph-name="edieresis" unicode="&#xeb;" horiz-adv-x="505" 
d="M476 246q0 -27 -3 -39h-294q11 -107 120 -107q72 0 161 51l15 -106q-86 -55 -195 -55q-115 0 -183.5 63.5t-68.5 189.5q0 118 64.5 187.5t166.5 69.5q108 0 162.5 -70.5t54.5 -183.5zM332 290q-8 112 -77 112q-32 0 -52.5 -28.5t-24.5 -83.5h154zM422 548h-130v131h130
v-131zM224 548h-130v131h130v-131z" />
    <glyph glyph-name="igrave" unicode="&#xec;" horiz-adv-x="262" 
d="M187 547h-88l-130 121l165 30zM208 0h-151v490h151v-490z" />
    <glyph glyph-name="iacute" unicode="&#xed;" horiz-adv-x="262" 
d="M294 668l-131 -121h-85l53 151zM208 0h-151v490h151v-490z" />
    <glyph glyph-name="icircumflex" unicode="&#xee;" horiz-adv-x="262" 
d="M282 560l-80 -17l-69 62l-66 -58h-87l91 147h125zM208 0h-151v490h151v-490z" />
    <glyph glyph-name="idieresis" unicode="&#xef;" horiz-adv-x="262" 
d="M271 548h-113v131h113v-131zM104 548h-113v131h113v-131zM208 0h-151v490h151v-490z" />
    <glyph glyph-name="eth" unicode="&#xf0;" horiz-adv-x="539" 
d="M508 312q0 -169 -88 -259q-63 -64 -164 -64q-99 0 -163 63t-64 173q0 105 53 169.5t133 64.5q82 0 143 -58q-10 84 -83 139l-28 -37h-87l51 72q-27 12 -82 29l18 117q70 -14 139 -44l31 45l86 -18l-49 -65q154 -107 154 -327zM362 300q-50 42 -104 42q-38 0 -61 -32
t-23 -89q0 -53 24.5 -83.5t66.5 -30.5q45 0 71 47t27 137q0 7 -1 9z" />
    <glyph glyph-name="ntilde" unicode="&#xf1;" horiz-adv-x="537" 
d="M488 0h-152v307q0 59 -50 59q-39 0 -83 -44v-322h-151v490h133l11 -67q79 77 153 77q67 0 103 -40t36 -112v-348zM440 686q-9 -75 -32.5 -107t-62.5 -32q-24 0 -71 20q-50 21 -65 21q-12 0 -19 -9.5t-13 -34.5l-71 15q9 75 32.5 107.5t62.5 32.5q28 0 71 -20
q47 -21 65 -21q22 0 32 45z" />
    <glyph glyph-name="ograve" unicode="&#xf2;" horiz-adv-x="527" 
d="M499 245q0 -116 -66.5 -185.5t-170.5 -69.5q-103 0 -168.5 69t-65.5 185t66 186t169 70q104 0 170 -69.5t66 -185.5zM353 244q0 60 -23.5 96t-66.5 36t-66 -35t-23 -96q0 -60 23.5 -96.5t65.5 -36.5q43 0 66.5 36t23.5 96zM314 547h-99l-146 121l185 30z" />
    <glyph glyph-name="oacute" unicode="&#xf3;" horiz-adv-x="527" 
d="M456 668l-147 -121h-96l60 151zM499 245q0 -116 -66.5 -185.5t-170.5 -69.5q-103 0 -168.5 69t-65.5 185t66 186t169 70q104 0 170 -69.5t66 -185.5zM353 244q0 60 -23.5 96t-66.5 36t-66 -35t-23 -96q0 -60 23.5 -96.5t65.5 -36.5q43 0 66.5 36t23.5 96z" />
    <glyph glyph-name="ocircumflex" unicode="&#xf4;" horiz-adv-x="527" 
d="M499 245q0 -116 -66.5 -185.5t-170.5 -69.5q-103 0 -168.5 69t-65.5 185t66 186t169 70q104 0 170 -69.5t66 -185.5zM353 244q0 60 -23.5 96t-66.5 36t-66 -35t-23 -96q0 -60 23.5 -96.5t65.5 -36.5q43 0 66.5 36t23.5 96zM430 560l-89 -17l-77 62l-74 -58h-96l102 147
h138z" />
    <glyph glyph-name="otilde" unicode="&#xf5;" horiz-adv-x="527" 
d="M499 245q0 -116 -66.5 -185.5t-170.5 -69.5q-103 0 -168.5 69t-65.5 185t66 186t169 70q104 0 170 -69.5t66 -185.5zM353 244q0 60 -23.5 96t-66.5 36t-66 -35t-23 -96q0 -60 23.5 -96.5t65.5 -36.5q43 0 66.5 36t23.5 96zM431 686q-9 -75 -32.5 -107t-62.5 -32
q-24 0 -71 20q-50 21 -65 21q-12 0 -19 -9.5t-13 -34.5l-71 15q9 75 32.5 107.5t62.5 32.5q28 0 71 -20q47 -21 65 -21q22 0 32 45z" />
    <glyph glyph-name="odieresis" unicode="&#xf6;" horiz-adv-x="527" 
d="M499 245q0 -116 -66.5 -185.5t-170.5 -69.5q-103 0 -168.5 69t-65.5 185t66 186t169 70q104 0 170 -69.5t66 -185.5zM353 244q0 60 -23.5 96t-66.5 36t-66 -35t-23 -96q0 -60 23.5 -96.5t65.5 -36.5q43 0 66.5 36t23.5 96zM427 548h-130v131h130v-131zM229 548h-130v131
h130v-131z" />
    <glyph glyph-name="divide" unicode="&#xf7;" horiz-adv-x="572" 
d="M353 472h-134v130h134v-130zM518 280h-464v116h464v-116zM353 74h-134v130h134v-130z" />
    <glyph glyph-name="oslash" unicode="&#xf8;" horiz-adv-x="527" 
d="M509 479l-59 -71q49 -63 49 -163q0 -115 -66.5 -185t-167.5 -70q-78 0 -136 41l-30 -39l-81 18l59 71q-48 67 -48 163q0 116 66 186t167 70q76 0 136 -41l30 39zM319 361q-23 23 -56 23q-44 0 -68 -38t-24 -101q0 -37 7 -62zM349 307l-142 -178q23 -23 56 -23
q45 0 70 37.5t25 100.5q0 36 -9 63z" />
    <glyph glyph-name="ugrave" unicode="&#xf9;" horiz-adv-x="537" 
d="M485 0h-133l-11 67q-79 -77 -153 -77q-68 0 -103.5 39.5t-35.5 111.5v349h151v-307q0 -60 51 -60q39 0 83 44v323h151v-490zM326 547h-99l-146 121l185 30z" />
    <glyph glyph-name="uacute" unicode="&#xfa;" horiz-adv-x="537" 
d="M485 0h-133l-11 67q-79 -77 -153 -77q-68 0 -103.5 39.5t-35.5 111.5v349h151v-307q0 -60 51 -60q39 0 83 44v323h151v-490zM445 668l-147 -121h-96l60 151z" />
    <glyph glyph-name="ucircumflex" unicode="&#xfb;" horiz-adv-x="537" 
d="M485 0h-133l-11 67q-79 -77 -153 -77q-68 0 -103.5 39.5t-35.5 111.5v349h151v-307q0 -60 51 -60q39 0 83 44v323h151v-490zM435 560l-89 -17l-77 62l-74 -58h-96l102 147h138z" />
    <glyph glyph-name="udieresis" unicode="&#xfc;" horiz-adv-x="537" 
d="M485 0h-133l-11 67q-79 -77 -153 -77q-68 0 -103.5 39.5t-35.5 111.5v349h151v-307q0 -60 51 -60q39 0 83 44v323h151v-490zM433 548h-130v131h130v-131zM235 548h-130v131h130v-131z" />
    <glyph glyph-name="yacute" unicode="&#xfd;" horiz-adv-x="510" 
d="M502 490l-174 -500q-33 -95 -81.5 -133.5t-129.5 -38.5q-29 0 -57 6l-19 121q26 -8 60 -8q58 0 80 47l6 15l-178 479l162 19l95 -309l90 302h146zM455 659l-147 -121h-96l60 151z" />
    <glyph glyph-name="thorn" unicode="&#xfe;" horiz-adv-x="544" 
d="M512 258q0 -131 -59 -197t-147 -66q-50 0 -103 17v-175l-151 -23v884l151 24v-289q61 67 133 67q80 0 128 -61t48 -181zM361 248q0 59 -20 88t-54 29q-42 0 -84 -50v-186q31 -15 68 -15q41 0 65.5 33t24.5 101z" />
    <glyph glyph-name="ydieresis" unicode="&#xff;" horiz-adv-x="510" 
d="M502 490l-174 -500q-33 -95 -81.5 -133.5t-129.5 -38.5q-29 0 -57 6l-19 121q26 -8 60 -8q58 0 80 47l6 15l-178 479l162 19l95 -309l90 302h146zM428 548h-130v131h130v-131zM230 548h-130v131h130v-131z" />
    <glyph glyph-name="dotlessi" unicode="&#x131;" horiz-adv-x="262" 
d="M208 0h-151v490h151v-490z" />
    <glyph glyph-name="Lslash" unicode="&#x141;" horiz-adv-x="519" 
d="M503 0h-404v274l-66 -18l-23 138l89 25v271h170v-222l138 39v-145l-138 -38v-176h211z" />
    <glyph glyph-name="lslash" unicode="&#x142;" horiz-adv-x="333" 
d="M320 346l-79 -22v-324h-149v281l-67 -19l-23 139l90 25v272l149 24v-252l79 20v-144z" />
    <glyph glyph-name="OE" unicode="&#x152;" horiz-adv-x="908" 
d="M875 0h-471q-176 0 -270.5 93.5t-94.5 250.5t95 251.5t266 94.5h466v-137h-262v-126h200l22 -141h-222v-149h271v-137zM438 133v424h-29q-95 0 -147 -52t-52 -160q0 -105 53.5 -158.5t145.5 -53.5h29z" />
    <glyph glyph-name="oe" unicode="&#x153;" horiz-adv-x="830" 
d="M800 246q0 -23 -2 -39h-295q11 -107 121 -107q72 0 161 51l15 -106q-86 -55 -191 -55q-126 0 -184 83q-62 -83 -169 -83q-98 0 -163 69.5t-65 184.5q0 116 65.5 186t167.5 70q111 0 165 -84q61 84 164 84t156.5 -70.5t53.5 -183.5zM656 290q-8 112 -76 112
q-33 0 -53.5 -28.5t-23.5 -83.5h153zM353 244q0 60 -23.5 96t-66.5 36t-66 -35t-23 -96q0 -60 23.5 -96.5t65.5 -36.5q43 0 66.5 36t23.5 96z" />
    <glyph glyph-name="Scaron" unicode="&#x160;" horiz-adv-x="553" 
d="M523 208q0 -107 -69 -161.5t-178 -54.5q-127 0 -241 52l25 146q120 -64 219 -64q38 0 60.5 16t22.5 46t-22.5 48.5t-94.5 45.5q-110 42 -154 86t-44 126q0 96 66.5 150t169.5 54q113 0 208 -46l-26 -144q-96 56 -180 56q-38 0 -57.5 -14.5t-19.5 -39.5q0 -27 20.5 -44
t84.5 -41q116 -42 163 -89t47 -128zM453 897l-102 -147h-138l-96 134l89 18l77 -63l74 58h96z" />
    <glyph glyph-name="scaron" unicode="&#x161;" horiz-adv-x="464" 
d="M435 151q0 -77 -51.5 -118t-149.5 -41q-109 0 -202 49l18 115q93 -58 185 -58q62 0 62 37q0 19 -16 30t-67 23q-97 25 -136 58t-39 99q0 69 49.5 110.5t138.5 41.5q101 0 181 -36l-19 -115q-84 46 -161 46q-52 0 -52 -32q0 -16 16.5 -26t66.5 -24q100 -27 138 -59.5
t38 -99.5zM403 694l-102 -147h-138l-96 134l89 18l77 -63l74 58h96z" />
    <glyph glyph-name="Ydieresis" unicode="&#x178;" horiz-adv-x="672" 
d="M666 690l-248 -436v-254h-172v252l-238 420l182 25l150 -287l147 280h179zM504 730h-130v131h130v-131zM306 730h-130v131h130v-131z" />
    <glyph glyph-name="Zcaron" unicode="&#x17d;" horiz-adv-x="613" 
d="M580 0h-540v124l322 430h-287l-21 136h517v-124l-322 -430h309zM485 888l-102 -147h-138l-96 134l89 18l77 -63l74 58h96z" />
    <glyph glyph-name="zcaron" unicode="&#x17e;" horiz-adv-x="467" 
d="M442 0h-413v114l214 258h-187l-18 118h392v-115l-214 -257h207zM405 694l-102 -147h-138l-96 134l89 18l77 -63l74 58h96z" />
    <glyph glyph-name="florin" unicode="&#x192;" horiz-adv-x="445" 
d="M127 457l9 58q14 92 62.5 130.5t139.5 38.5q42 0 80 -5v-124q-23 5 -48 5q-34 0 -51.5 -16.5t-23.5 -53.5l-5 -33h92v-125h-112l-54 -332h-161l52 332h-74l18 125h76z" />
    <glyph glyph-name="circumflex" unicode="&#x2c6;" 
d="M394 560l-89 -17l-77 62l-74 -58h-96l102 147h138z" />
    <glyph glyph-name="caron" unicode="&#x2c7;" 
d="M396 694l-102 -147h-138l-96 134l89 18l77 -63l74 58h96z" />
    <glyph glyph-name="breve" unicode="&#x2d8;" 
d="M383 696q-8 -72 -47.5 -111t-109.5 -39q-66 0 -106 37.5t-48 104.5l84 13q10 -32 26.5 -45.5t45.5 -13.5q54 0 68 54h87z" />
    <glyph glyph-name="dotaccent" unicode="&#x2d9;" 
d="M294 548h-134v131h134v-131z" />
    <glyph glyph-name="ring" unicode="&#x2da;" 
d="M359 653q0 -47 -34.5 -77.5t-97.5 -30.5t-97.5 30.5t-34.5 77.5t34.5 77.5t97.5 30.5t97.5 -30.5t34.5 -77.5zM277 653q0 24 -14 40.5t-36 16.5t-36 -16.5t-14 -40.5q0 -25 14 -41.5t36 -16.5t36 16.5t14 41.5z" />
    <glyph glyph-name="ogonek" unicode="&#x2db;" 
d="M350 -182h-99l-141 106l185 30z" />
    <glyph glyph-name="tilde" unicode="&#x2dc;" 
d="M394 686q-9 -75 -32.5 -107t-62.5 -32q-24 0 -71 20q-50 21 -65 21q-12 0 -19 -9.5t-13 -34.5l-71 15q9 75 32.5 107.5t62.5 32.5q28 0 71 -20q47 -21 65 -21q22 0 32 45z" />
    <glyph glyph-name="hungarumlaut" unicode="&#x2dd;" 
d="M443 670l-145 -122h-80l61 150zM242 670l-144 -122h-81l60 150z" />
    <glyph glyph-name="Delta" unicode="&#x394;" horiz-adv-x="500" 
d="M25 -200v1000h450v-1000h-450z" />
    <glyph glyph-name="Omega" unicode="&#x3a9;" horiz-adv-x="682" 
d="M687 592q-28 4 -54 4q-60 0 -60 -60v-46h88l20 -123h-108v-367h-150v367h-69v123h69v61q0 162 185 162q18 0 61 -5zM346 592q-30 4 -54 4q-60 0 -60 -60v-46h89l18 -123h-107v-367h-151v367h-68v123h68v61q0 162 186 162q19 0 61 -5z" />
    <glyph glyph-name="pi" unicode="&#x3c0;" horiz-adv-x="799" 
d="M745 346q0 -160 -96.5 -259.5t-249.5 -99.5q-154 0 -249.5 98.5t-95.5 258.5t96.5 259.5t249.5 99.5q154 0 249.5 -98.5t95.5 -258.5zM701 345q0 151 -85 236.5t-216 85.5q-133 0 -217.5 -85.5t-84.5 -236.5t85 -236.5t217 -85.5t216.5 85.5t84.5 236.5zM573 412
q0 -66 -43.5 -102t-118.5 -36h-32v-124h-110v394h148q72 0 114 -35t42 -97zM468 410q0 55 -62 55h-28v-113h27q63 0 63 58z" />
    <glyph glyph-name="endash" unicode="&#x2013;" 
d="M413 220h-372v141h372v-141z" />
    <glyph glyph-name="emdash" unicode="&#x2014;" horiz-adv-x="908" 
d="M867 221h-826v139h826v-139z" />
    <glyph glyph-name="quoteleft" unicode="&#x2018;" horiz-adv-x="258" 
d="M216 678l-22 -294h-171l101 315z" />
    <glyph glyph-name="quoteright" unicode="&#x2019;" horiz-adv-x="258" 
d="M235 690l-100 -315l-92 21l21 294h171z" />
    <glyph glyph-name="quotesinglbase" unicode="&#x201a;" horiz-adv-x="258" 
d="M229 172l-100 -315l-92 21l22 294h170z" />
    <glyph glyph-name="quotedblleft" unicode="&#x201c;" horiz-adv-x="481" 
d="M213 678l-22 -294h-168l101 315zM438 678l-21 -294h-168l100 315z" />
    <glyph glyph-name="quotedblright" unicode="&#x201d;" horiz-adv-x="481" 
d="M232 690l-100 -315l-89 21l21 294h168zM458 690l-101 -315l-89 21l22 294h168z" />
    <glyph glyph-name="quotedblbase" unicode="&#x201e;" horiz-adv-x="481" 
d="M227 172l-101 -315l-89 21l22 294h168zM452 172l-100 -315l-89 21l21 294h168z" />
    <glyph glyph-name="dagger" unicode="&#x2020;" horiz-adv-x="512" 
d="M324 611l-51 -135h-34l-50 135v79h135v-79zM473 373h-42l-135 47v33l135 47h42v-127zM216 420l-135 -47h-42v127h42l135 -47v-33zM311 11l-40 -125h-31l-40 125v268l39 119h34l38 -119v-268z" />
    <glyph glyph-name="daggerdbl" unicode="&#x2021;" horiz-adv-x="531" 
d="M333 611l-51 -135h-34l-50 135v79h135v-79zM482 377h-42l-135 43v33l135 44h42v-120zM225 420l-135 -43h-42v120h42l135 -44v-33zM327 230l-45 -119h-34l-45 119v49l45 119h34l45 -119v-49zM482 12h-42l-135 43v33l135 44h42v-120zM225 55l-135 -43h-42v120h42l135 -44
v-33zM333 -182h-135v79l50 136h34l51 -136v-79z" />
    <glyph glyph-name="bullet" unicode="&#x2022;" horiz-adv-x="482" 
d="M412 344l-24 -156l-147 -23l-146 23l-25 156l25 157l146 23l147 -23z" />
    <glyph glyph-name="ellipsis" unicode="&#x2026;" horiz-adv-x="778" 
d="M727 0h-159v171h159v-171zM469 0h-159v171h159v-171zM211 0h-160v171h160v-171z" />
    <glyph glyph-name="perthousand" unicode="&#x2030;" horiz-adv-x="799" 
d="M745 346q0 -160 -96.5 -259.5t-249.5 -99.5q-154 0 -249.5 98.5t-95.5 258.5t96.5 259.5t249.5 99.5q154 0 249.5 -98.5t95.5 -258.5zM701 345q0 151 -85 236.5t-216 85.5q-133 0 -217.5 -85.5t-84.5 -236.5t85 -236.5t217 -85.5t216.5 85.5t84.5 236.5zM491 310l98 -140
l-113 -20l-89 133h-23v-128h-108v394h140q77 0 119.5 -33.5t42.5 -95.5q0 -75 -67 -110zM390 470h-27v-113h27q64 0 64 57q0 56 -64 56z" />
    <glyph glyph-name="guilsinglleft" unicode="&#x2039;" horiz-adv-x="333" 
d="M297 490l-109 -245l103 -233l-98 -20l-171 253l166 245h109z" />
    <glyph glyph-name="guilsinglright" unicode="&#x203a;" horiz-adv-x="333" 
d="M311 244l-166 -244h-109l108 244l-102 233l98 21z" />
    <glyph glyph-name="fraction" unicode="&#x2044;" horiz-adv-x="452" 
d="M535 766l-537 -874l-77 18l537 874z" />
    <glyph glyph-name="trademark" unicode="&#x2122;" horiz-adv-x="812" 
d="M776 345h-95l-15 215l-64 -217h-86l-64 217l-15 -215h-82l26 345h120l67 -225l67 225h115zM332 615h-110v-270h-93v270h-102v75h294z" />
    <glyph glyph-name="partialdiff" unicode="&#x2202;" horiz-adv-x="747" 
d="M722 141l-29 -155l-108 86q-88 -82 -219 -82q-149 0 -239 97t-90 257q0 161 90.5 260t240.5 99q152 0 240.5 -97.5t88.5 -253.5q0 -93 -35 -168zM528 348q0 102 -42 161.5t-117 59.5q-76 0 -118 -60.5t-42 -164.5t42.5 -164.5t117.5 -60.5q62 0 102 42l-152 115l168 37
l31 -23q10 27 10 58z" />
    <glyph glyph-name="product" unicode="&#x220f;" horiz-adv-x="500" 
d="M25 -200v1000h450v-1000h-450z" />
    <glyph glyph-name="summation" unicode="&#x2211;" horiz-adv-x="1011" 
d="M998 690l-224 -693h-172l-97 290l-106 -290h-168l-217 672l180 28l145 -478l99 270l-59 182l180 27l136 -479l133 471h170z" />
    <glyph glyph-name="minus" unicode="&#x2212;" horiz-adv-x="500" 
d="M25 -200v1000h450v-1000h-450z" />
    <glyph glyph-name="radical" unicode="&#x221a;" horiz-adv-x="944" 
d="M889 0h-151v698l151 24v-722zM687 592q-28 4 -54 4q-60 0 -60 -60v-46h88l20 -123h-108v-367h-150v367h-69v123h69v61q0 162 185 162q18 0 61 -5zM346 592q-30 4 -54 4q-60 0 -60 -60v-46h89l18 -123h-107v-367h-151v367h-68v123h68v61q0 162 186 162q19 0 61 -5z" />
    <glyph glyph-name="infinity" unicode="&#x221e;" horiz-adv-x="507" 
d="M459 0h-134l-10 61q-68 -71 -154 -71q-60 0 -96.5 35.5t-36.5 100.5q0 85 67 129t213 57v9q0 62 -74 62t-158 -37l-18 114q93 38 199 38q104 0 153 -39t49 -131v-328zM308 135v104q-73 -11 -102 -34.5t-29 -58.5q0 -23 13 -35.5t34 -12.5q42 0 84 37z" />
    <glyph glyph-name="integral" unicode="&#x222b;" horiz-adv-x="541" 
d="M489 30q0 -212 -237 -212q-99 0 -190 36l22 114q74 -38 149 -38q105 0 105 95v42q-64 -62 -131 -62q-79 0 -128 59.5t-49 174.5q0 128 66 192.5t182 64.5q114 0 211 -35v-431zM338 180v185q-26 9 -56 9q-100 0 -100 -128q0 -56 19.5 -84.5t53.5 -28.5q38 0 83 47z" />
    <glyph glyph-name="approxequal" unicode="&#x2248;" horiz-adv-x="944" 
d="M899 636q0 -36 -24.5 -58.5t-60.5 -22.5q-37 0 -61.5 22.5t-24.5 58.5t24.5 58.5t61.5 22.5q36 0 60.5 -22.5t24.5 -58.5zM687 592q-28 4 -54 4q-60 0 -60 -60v-46h88l20 -123h-108v-367h-150v367h-69v123h69v61q0 162 185 162q18 0 61 -5zM346 592q-30 4 -54 4
q-60 0 -60 -60v-46h89l18 -123h-107v-367h-151v367h-68v123h68v61q0 162 186 162q19 0 61 -5zM889 0h-151v490h151v-490z" />
    <glyph glyph-name="notequal" unicode="&#x2260;" horiz-adv-x="545" 
d="M508 206q0 -100 -68 -159.5t-184 -59.5q-123 0 -225 52l21 132q92 -51 183 -51q112 0 112 88q0 85 -145 85h-54l-16 99l165 153h-235l-22 131h452v-121l-174 -157q91 -15 140.5 -60t49.5 -132z" />
    <glyph glyph-name="lessequal" unicode="&#x2264;" horiz-adv-x="884" 
d="M822 0h-163v454l-151 -457h-149l-151 457v-454h-145v690h229l154 -472l153 472h223v-690z" />
    <glyph glyph-name="greaterequal" unicode="&#x2265;" horiz-adv-x="698" 
d="M480 66q-105 -73 -204 -73q-216 0 -216 223v474h172v-450q0 -101 94 -101q63 0 138 57v494h171v-690h-144q-10 66 -11 66z" />
    <glyph glyph-name="lozenge" unicode="&#x25ca;" horiz-adv-x="812" 
d="M776 345h-95l-15 215l-64 -217h-86l-64 217l-15 -215h-82l26 345h120l67 -225l67 225h115zM182 340q-59 0 -115 28l13 78q60 -34 105 -34q35 0 35 27q0 14 -10.5 23t-38.5 20q-55 23 -76.5 45.5t-21.5 64.5q0 47 33.5 75t83.5 28q56 0 99 -24l-11 -78q-51 30 -89 30
q-33 0 -33 -24q0 -12 9 -20.5t35 -19.5q59 -24 82 -47.5t23 -65.5q0 -52 -34 -79t-89 -27z" />
    <glyph glyph-name="apple" unicode="&#xf8ff;" horiz-adv-x="694" 
d="M644 -200h-208l-8 14h-163l-8 -14h-207v303q14 0 23 9.5t9 22.5t-9.5 22.5t-22.5 9.5v554h100l30 79h334l29 -79h101v-921zM400 563v-172h15v78h38v14h-38v66h43v14h-58zM184 563v-172h15v79h47v-79h15v172h-15v-79h-47v79h-15zM460 394q8 -4 21 -4q31 0 31 36v137h-16
v-137q0 -22 -16 -22q-10 0 -20 6v-16zM523 323v-46h8v13l7 7l16 -20h9l-19 26l18 20h-10l-21 -24v24h-8zM488 292l10 -15h9l-12 17q10 3 10 15q0 5 -4.5 9.5t-11.5 4.5h-21v-46h8v15h12zM426 276q11 0 17.5 7t6.5 17q0 9 -7 16.5t-17 7.5t-16.5 -7.5t-6.5 -16.5
q0 -10 6.5 -17t16.5 -7zM370 301l-13 22h-9l18 -29v-17h8v17l18 29h-9zM193 323v-46h33v7h-25v13h22v7h-22v12h25v7h-33zM132 323v-46h8v32l25 -32h7v46h-8v-32l-25 32h-7zM241 323l15 -47h8l10 34h1l11 -34h8l14 47h-8l-10 -35h-1l-10 35h-8l-11 -35h-1l-10 35h-8zM327 479
q-12 22 -12 32q0 19 14 19q13 0 13 -19q0 -15 -15 -32zM342 423q-6 -21 -18 -21q-17 0 -17 27q0 18 15 33zM488 299h-12v17h11q10 0 10 -8q0 -9 -9 -9zM426 283q-15 0 -15 17q0 6 4.5 11.5t10.5 5.5q7 0 11.5 -5.5t4.5 -11.5q0 -7 -4.5 -12t-11.5 -5zM349 438l-16 31
q23 21 23 42q0 12 -7 21.5t-20 9.5q-12 0 -20 -9.5t-8 -21.5q0 -13 14 -39q-23 -18 -23 -45q0 -17 9 -28t22 -11q17 0 27 24h1l12 -24l11 8l-16 30q10 23 13 39l-13 3q-2 -9 -9 -30z" />
    <glyph glyph-name="fi" unicode="&#xfb01;" horiz-adv-x="604" 
d="M558 636q0 -36 -24.5 -58.5t-61.5 -22.5t-61.5 22.5t-24.5 58.5t24.5 58.5t61.5 22.5t61.5 -22.5t24.5 -58.5zM346 592q-30 4 -54 4q-60 0 -60 -60v-46h89l18 -123h-107v-367h-151v367h-68v123h68v61q0 162 186 162q19 0 61 -5zM548 0h-152v490h152v-490z" />
    <glyph glyph-name="fl" unicode="&#xfb02;" horiz-adv-x="604" 
d="M548 0h-152v698l152 24v-722zM346 592q-30 4 -54 4q-60 0 -60 -60v-46h89l18 -123h-107v-367h-151v367h-68v123h68v61q0 162 186 162q19 0 61 -5z" />
    <glyph glyph-name="NUL" horiz-adv-x="0" 
 />
    </font>
</defs>
</svg>
